<svg xmlns="http://www.w3.org/2000/svg" viewBox="0 0 1000 280"><rect width="100%" height="100%" fill="#f7f9fc"/><polyline fill="none" stroke="#3457d5" stroke-width="2" points="30.00,204.42 30.94,207.82 31.88,213.05 32.82,221.41 33.76,223.11 34.70,222.26 35.65,221.46 36.59,221.41 37.53,213.48 38.47,216.74 39.41,218.58 40.35,222.26 41.29,218.01 42.23,220.56 43.17,222.54 44.11,227.07 45.06,229.90 46.00,225.37 46.94,230.75 47.88,231.88 48.82,232.73 49.76,229.90 50.70,224.52 51.64,220.27 52.58,232.59 53.52,240.09 54.46,236.69 55.41,233.01 56.35,237.97 57.29,236.98 58.23,236.69 59.17,235.28 60.11,237.26 61.05,239.81 61.99,248.58 62.93,245.19 63.87,250.00 64.81,247.45 65.76,238.82 66.70,235.84 67.64,231.88 68.58,227.92 69.52,232.02 70.46,232.59 71.40,237.26 72.34,238.39 73.28,241.93 74.22,232.45 75.17,228.77 76.11,218.01 77.05,209.66 77.99,198.19 78.93,204.14 79.87,205.41 80.81,204.99 81.75,192.39 82.69,183.47 83.63,176.53 84.57,178.37 85.52,172.71 86.46,161.11 87.40,163.37 88.34,162.97 89.28,166.48 90.22,167.33 91.16,153.60 92.10,153.74 93.04,164.22 93.98,164.79 94.92,172.29 95.87,160.82 96.81,164.79 97.75,163.94 98.69,158.84 99.63,169.03 100.57,168.47 101.51,163.09 102.45,165.66 103.39,164.36 104.33,160.26 105.28,177.10 106.22,172.43 107.16,173.85 108.10,177.81 109.04,182.51 109.98,179.51 110.92,174.98 111.86,174.55 112.80,170.16 113.74,170.87 114.68,180.64 115.63,182.90 116.57,175.54 117.51,180.36 118.45,181.49 119.39,175.86 120.33,178.37 121.27,174.98 122.21,174.41 123.15,173.85 124.09,161.11 125.04,163.65 125.98,161.67 126.92,149.50 127.86,148.08 128.80,152.33 129.74,151.90 130.68,136.19 131.62,129.96 132.56,142.99 133.50,150.06 134.44,154.74 135.39,149.64 136.33,160.82 137.27,205.27 138.21,176.82 139.15,181.21 140.09,192.81 141.03,190.27 141.97,189.98 142.91,201.87 143.85,195.36 144.79,194.79 145.74,182.34 146.68,180.92 147.62,182.90 148.56,172.71 149.50,159.41 150.44,157.00 151.38,151.76 152.32,159.69 153.26,159.69 154.20,171.01 155.15,182.06 156.09,180.07 157.03,190.41 157.97,177.81 158.91,171.04 159.85,166.91 160.79,158.84 161.73,160.40 162.67,146.53 163.61,154.03 164.55,159.12 165.50,150.49 166.44,144.40 167.38,124.02 168.32,125.72 169.26,126.57 170.20,112.98 171.14,104.94 172.08,109.01 173.02,105.33 173.96,106.32 174.90,108.73 175.85,109.35 176.79,106.30 177.73,114.25 178.67,122.18 179.61,119.49 180.55,107.60 181.49,120.34 182.43,122.74 183.37,131.83 184.31,138.17 185.26,129.68 186.20,132.23 187.14,127.27 188.08,120.90 189.02,124.87 189.96,119.35 190.90,112.84 191.84,109.58 192.78,116.66 193.72,122.35 194.66,108.73 195.61,108.16 196.55,103.64 197.49,124.87 198.43,123.45 199.37,123.74 200.31,119.21 201.25,110.01 202.19,112.41 203.13,118.07 204.07,106.75 205.02,113.54 205.96,116.23 206.90,115.53 207.84,116.37 208.78,119.49 209.72,133.08 210.66,138.88 211.60,159.97 212.54,166.20 213.48,170.45 214.42,163.09 215.37,163.65 216.31,169.88 217.25,178.37 218.19,178.66 219.13,161.95 220.07,164.22 221.01,164.79 221.95,164.50 222.89,160.11 223.83,162.66 224.77,155.16 225.72,166.20 226.66,176.39 227.60,168.75 228.54,175.83 229.48,185.45 230.42,169.03 231.36,169.03 232.30,155.73 233.24,164.22 234.18,163.94 235.13,169.74 236.07,165.07 237.01,166.20 237.95,172.15 238.89,176.68 239.83,175.54 240.77,176.11 241.71,189.42 242.65,189.42 243.59,181.77 244.53,179.37 245.48,180.92 246.42,183.75 247.36,188.85 248.30,191.68 249.24,192.11 250.18,199.61 251.12,192.39 252.06,197.91 253.00,190.83 253.94,190.83 254.88,190.83 255.83,179.22 256.77,174.69 257.71,176.96 258.65,167.62 259.59,159.12 260.53,156.58 261.47,163.94 262.41,164.36 263.35,169.32 264.29,168.47 265.24,158.84 266.18,150.06 267.12,143.41 268.06,141.57 269.00,132.80 269.94,136.76 270.88,134.07 271.82,129.68 272.76,132.20 273.70,135.20 274.64,129.11 275.59,132.34 276.53,129.40 277.47,132.23 278.41,131.66 279.35,134.49 280.29,141.26 281.23,142.76 282.17,149.22 283.11,147.80 284.05,148.22 284.99,152.33 285.94,153.89 286.88,148.65 287.82,150.06 288.76,159.12 289.70,144.69 290.64,146.67 291.58,146.24 292.52,150.63 293.46,143.84 294.40,150.91 295.35,147.80 296.29,140.16 297.23,137.64 298.17,139.31 299.11,151.62 300.05,156.01 300.99,152.61 301.93,158.56 302.87,160.26 303.81,203.57 304.75,176.11 305.70,177.67 306.64,180.64 307.58,172.71 308.52,177.24 309.46,182.06 310.40,186.73 311.34,185.45 312.28,183.90 313.22,197.06 314.16,199.04 315.11,209.23 316.05,206.54 316.99,205.55 317.93,195.64 318.87,190.55 319.81,193.10 320.75,187.15 321.69,197.63 322.63,197.63 323.57,198.62 324.51,203.15 325.46,195.64 326.40,190.83 327.34,184.60 328.28,185.17 329.22,187.86 330.16,178.66 331.10,177.81 332.04,185.45 332.98,183.47 333.92,191.11 334.86,182.62 335.81,183.19 336.75,182.06 337.69,172.43 338.63,168.47 339.57,163.94 340.51,162.52 341.45,166.20 342.39,167.62 343.33,162.24 344.27,163.23 345.22,159.27 346.16,158.98 347.10,160.54 348.04,169.60 348.98,167.62 349.92,165.35 350.86,169.60 351.80,168.32 352.74,165.78 353.68,165.92 354.62,172.43 355.57,174.16 356.51,176.22 357.45,174.27 358.39,173.85 359.33,169.60 360.27,168.89 361.21,170.16 362.15,172.43 363.09,173.42 364.03,175.40 364.97,176.68 365.92,188.85 366.86,185.17 367.80,185.17 368.74,184.04 369.68,183.33 370.62,187.86 371.56,188.28 372.50,193.10 373.44,193.66 374.38,192.53 375.33,194.23 376.27,194.23 377.21,194.94 378.15,199.89 379.09,200.03 380.03,193.38 380.97,198.05 381.91,198.19 382.85,198.48 383.79,199.04 384.73,193.66 385.68,189.42 386.62,192.81 387.56,190.55 388.50,197.06 389.44,196.78 390.38,195.22 391.32,196.21 392.26,195.36 393.20,193.66 394.14,194.51 395.09,188.00 396.03,189.13 396.97,186.16 397.91,186.58 398.85,192.95 399.79,194.79 400.73,198.19 401.67,201.02 402.61,199.61 403.55,197.63 404.49,201.31 405.44,201.16 406.38,202.01 407.32,201.02 408.26,198.62 409.20,198.76 410.14,198.19 411.08,195.47 412.02,200.74 412.96,202.30 413.90,200.17 414.84,201.16 415.79,197.63 416.73,191.68 417.67,190.27 418.61,191.40 419.55,189.84 420.49,189.56 421.43,195.22 422.37,200.32 423.31,200.74 424.25,195.93 425.20,193.66 426.14,189.73 427.08,184.60 428.02,187.72 428.96,184.74 429.90,183.75 430.84,188.14 431.78,185.45 432.72,187.72 433.66,188.42 434.60,183.75 435.55,185.45 436.49,182.48 437.43,182.48 438.37,182.48 439.31,186.61 440.25,182.20 441.19,176.68 442.13,178.80 443.07,176.82 444.01,178.23 444.95,175.26 445.90,174.01 446.84,170.45 447.78,176.68 448.72,179.51 449.66,179.51 450.60,177.89 451.54,173.42 452.48,174.69 453.42,174.27 454.36,173.56 455.31,172.85 456.25,169.88 457.19,172.15 458.13,172.57 459.07,176.96 460.01,172.43 460.95,170.16 461.89,175.54 462.83,176.96 463.77,174.84 464.71,177.10 465.66,174.98 466.60,169.88 467.54,174.13 468.48,170.16 469.42,175.83 470.36,174.69 471.30,177.81 472.24,176.39 473.18,174.98 474.12,178.37 475.07,179.51 476.01,180.07 476.95,181.91 477.89,179.37 478.83,178.09 479.77,175.40 480.71,173.56 481.65,181.49 482.59,183.75 483.53,179.22 484.47,180.78 485.42,182.20 486.36,188.28 487.30,187.72 488.24,182.90 489.18,186.30 490.12,177.81 491.06,200.74 492.00,204.28 492.94,208.10 493.88,205.27 494.82,210.22 495.77,203.71 496.71,208.81 497.65,212.49 498.59,211.50 499.53,204.14 500.47,141.77 501.41,146.10 502.35,145.05 503.29,146.10 504.23,145.42 505.18,144.97 506.12,147.52 507.06,141.74 508.00,141.57 508.94,137.61 509.88,137.89 510.82,136.62 511.76,135.37 512.70,133.08 513.64,133.08 514.58,129.77 515.53,130.53 516.47,122.60 517.41,124.30 518.35,125.01 519.29,126.93 520.23,132.80 521.17,137.72 522.11,136.82 523.05,137.61 523.99,137.32 524.93,137.61 525.88,138.17 526.82,136.53 527.76,134.81 528.70,139.59 529.64,136.76 530.58,142.85 531.52,142.70 532.46,141.17 533.40,139.65 534.34,140.44 535.29,141.91 536.23,140.04 537.17,140.16 538.11,130.81 539.05,134.78 539.99,126.14 540.93,122.04 541.87,114.90 542.81,85.80 543.75,139.87 544.69,115.19 545.64,101.94 546.58,95.45 547.52,95.43 548.46,106.47 549.40,107.15 550.34,104.20 551.28,92.59 552.22,77.31 553.16,72.49 554.10,77.28 555.05,72.78 555.99,74.48 556.93,79.01 557.87,82.97 558.81,86.93 559.75,88.04 560.69,83.25 561.63,86.20 562.57,86.93 563.51,88.06 564.45,86.90 565.40,80.42 566.34,80.42 567.28,80.99 568.22,83.22 569.16,85.69 570.10,80.31 571.04,78.44 571.98,78.44 572.92,76.15 573.86,77.02 574.80,78.72 575.75,73.34 576.69,71.36 577.63,67.26 578.57,74.16 579.51,69.95 580.45,71.36 581.39,70.51 582.33,68.81 583.27,73.63 584.21,69.10 585.16,65.05 586.10,63.43 587.04,59.75 587.98,55.22 588.92,55.51 589.86,49.99 590.80,44.55 591.74,39.09 592.68,39.37 593.62,43.90 594.56,44.72 595.51,46.31 596.45,46.45 597.39,34.84 598.33,35.97 599.27,30.00 600.21,41.92 601.15,73.91 602.09,94.72 603.03,87.78 603.97,106.58 604.91,94.01 605.86,72.21 606.80,83.82 607.74,95.71 608.68,99.39 609.62,110.01 610.56,100.01 611.50,101.23 612.44,93.44 613.38,92.03 614.32,97.97 615.27,87.50 616.21,80.70 617.15,45.43 618.09,49.42 619.03,54.09 619.97,74.19 620.91,82.26 621.85,78.16 622.79,94.72 623.73,91.18 624.67,116.09 625.62,101.65 626.56,85.52 627.50,84.67 628.44,90.90 629.38,89.34 630.32,106.47 631.26,105.33 632.20,120.62 633.14,99.64 634.08,88.35 635.03,90.61 635.97,85.80 636.91,77.31 637.85,73.91 638.79,76.46 639.73,88.32 640.67,93.44 641.61,95.99 642.55,88.35 643.49,93.44 644.43,89.62 645.38,80.28 646.32,106.89 647.26,105.62 648.20,102.59 649.14,102.79 650.08,90.33 651.02,76.32 651.96,79.85 652.90,63.55 653.84,67.40 654.78,75.89 655.73,80.70 656.67,85.52 657.61,99.95 658.55,102.36 659.49,91.04 660.43,106.18 661.37,102.50 662.31,92.03 663.25,81.84 664.19,82.97 665.14,80.14 666.08,76.74 667.02,76.17 667.96,88.35 668.90,80.42 669.84,75.04 670.78,73.65 671.72,78.16 672.66,92.31 673.60,90.61 674.54,88.35 675.49,105.90 676.43,108.45 677.37,99.39 678.31,98.26 679.25,116.94 680.19,122.32 681.13,115.67 682.07,108.16 683.01,112.13 683.95,112.41 684.89,111.28 685.84,107.91 686.78,114.11 687.72,129.68 688.66,124.02 689.60,122.60 690.54,106.89 691.48,108.16 692.42,111.00 693.36,109.86 694.30,124.16 695.25,115.67 696.19,101.09 697.13,101.94 698.07,103.49 699.01,108.33 699.95,108.45 700.89,103.64 701.83,111.00 702.77,111.56 703.71,113.12 704.65,108.22 705.60,122.89 706.54,121.47 707.48,123.74 708.42,125.43 709.36,121.75 710.30,123.59 711.24,118.64 712.18,109.01 713.12,114.68 714.06,124.02 715.01,129.26 715.95,142.28 716.89,137.61 717.83,132.23 718.77,123.03 719.71,126.99 720.65,127.42 721.59,137.89 722.53,146.07 723.47,137.61 724.41,134.18 725.36,133.50 726.30,140.01 727.24,139.45 728.18,135.48 729.12,128.29 730.06,136.02 731.00,127.56 731.94,134.92 732.88,131.66 733.82,126.85 734.76,125.15 735.71,133.93 736.65,138.46 737.59,135.34 738.53,135.63 739.47,136.76 740.41,137.04 741.35,126.57 742.29,122.01 743.23,118.92 744.17,125.43 745.12,123.74 746.06,123.45 747.00,124.87 747.94,125.72 748.88,115.81 749.82,110.85 750.76,114.53 751.70,109.58 752.64,114.96 753.58,109.30 754.52,109.86 755.47,114.11 756.41,111.99 757.35,114.11 758.29,113.83 759.23,117.79 760.17,116.97 761.11,109.86 762.05,104.48 762.99,104.85 763.93,103.92 764.87,100.80 765.82,105.33 766.76,109.44 767.70,108.16 768.64,109.86 769.58,108.73 770.52,120.06 771.46,116.37 772.40,117.22 773.34,123.74 774.28,123.57 775.23,121.07 776.17,108.73 777.11,108.31 778.05,101.37 778.99,97.69 779.93,96.70 780.87,97.12 781.81,102.79 782.75,101.94 783.69,103.07 784.63,101.37 785.58,100.80 786.52,96.27 787.46,94.29 788.40,83.53 789.34,85.23 790.28,81.61 791.22,80.99 792.16,84.67 793.10,86.14 794.04,84.53 794.98,85.23 795.93,88.06 796.87,87.50 797.81,86.37 798.75,82.06 799.69,83.20 800.63,79.57 801.57,78.16 802.51,76.17 803.45,76.74 804.39,77.17 805.34,78.16 806.28,85.23 807.22,85.94 808.16,90.19 809.10,88.63 810.04,86.51 810.98,83.82 811.92,94.86 812.86,95.28 813.80,93.73 814.74,96.42 815.69,92.31 816.63,88.35 817.57,88.21 818.51,89.88 819.45,90.33 820.39,88.35 821.33,82.12 822.27,78.72 823.21,81.27 824.15,84.67 825.10,84.95 826.04,88.06 826.98,84.95 827.92,83.22 828.86,84.33 829.80,84.67 830.74,85.94 831.68,81.27 832.62,79.57 833.56,81.84 834.50,81.84 835.45,79.29 836.39,78.44 837.33,79.01 838.27,76.46 839.21,81.13 840.15,81.98 841.09,80.42 842.03,79.85 842.97,81.84 843.91,83.11 844.85,79.57 845.80,77.59 846.74,78.72 847.68,81.55 848.62,86.62 849.56,89.34 850.50,85.66 851.44,83.53 852.38,82.97 853.32,83.96 854.26,87.22 855.21,88.35 856.15,89.06 857.09,90.05 858.03,89.76 858.97,88.63 859.91,96.56 860.85,94.01 861.79,93.16 862.73,91.18 863.67,90.75 864.61,79.23 865.56,80.70 866.50,82.26 867.44,85.77 868.38,86.08 869.32,86.93 870.26,93.16 871.20,92.03 872.14,89.76 873.08,95.14 874.02,88.35 874.96,87.22 875.91,88.91 876.85,84.67 877.79,88.06 878.73,88.63 879.67,89.76 880.61,92.31 881.55,94.58 882.49,90.33 883.43,86.93 884.37,82.97 885.32,84.95 886.26,89.06 887.20,87.22 888.14,84.53 889.08,83.96 890.02,83.25 890.96,83.93 891.90,76.60 892.84,73.06 893.78,76.17 894.72,77.59 895.67,78.16 896.61,80.99 897.55,78.16 898.49,81.84 899.43,79.57 900.37,78.72 901.31,80.85 902.25,75.61 903.19,80.42 904.13,81.27 905.08,85.23 906.02,91.32 906.96,94.29 907.90,100.80 908.84,95.99 909.78,97.69 910.72,89.62 911.66,92.03 912.60,95.71 913.54,97.12 914.48,97.12 915.43,91.46 916.37,90.53 917.31,92.03 918.25,92.31 919.19,96.56 920.13,101.94 921.07,101.65 922.01,102.79 922.95,101.09 923.89,101.65 924.83,100.24 925.78,94.86 926.72,95.14 927.66,97.66 928.60,97.69 929.54,107.03 930.48,111.70 931.42,110.01 932.36,111.28 933.30,114.53 934.24,112.13 935.19,112.41 936.13,119.63 937.07,116.66 938.01,112.69 938.95,120.48 939.89,116.94 940.83,116.66 941.77,120.62 942.71,118.92 943.65,116.66 944.59,121.05 945.54,123.03 946.48,120.48 947.42,122.89 948.36,123.17 949.30,127.56 950.24,133.36 951.18,128.83 952.12,125.43 953.06,128.27 954.00,130.81 954.94,120.62 955.89,115.81 956.83,113.83 957.77,127.13 958.71,131.95 959.65,124.58 960.59,120.34 961.53,121.75 962.47,141.15 963.41,135.63 964.35,132.51 965.30,131.95 966.24,125.15 967.18,119.21 968.12,110.29 969.06,112.69 970.00,117.79"/><circle cx="605.86" cy="72.21" r="5" fill="#159957"><title>buy</title></circle><circle cx="609.62" cy="110.01" r="5" fill="#d33f49"><title>sell</title></circle><circle cx="617.15" cy="45.43" r="5" fill="#159957"><title>buy</title></circle><circle cx="619.97" cy="74.19" r="5" fill="#d33f49"><title>sell</title></circle><text x="30" y="20" font-size="13">High 727.02</text><text x="30" y="270" font-size="13">Low 719.25</text></svg>